<svg t="1631077710826" class="icon" viewBox="0 0 1024 1024" version="1.1" xmlns="http://www.w3.org/2000/svg" p-id="2771" width="200" height="200"><path d="M941.526161 198.659612l-219.729571 0L721.79659 122.205761c0-45.751911-37.323927-82.473839-82.473839-82.473839L384.677249 39.731922c-45.751911 0-82.473839 37.323927-82.473839 82.473839L302.20341 198.659612 82.473839 198.659612C37.323927 198.659612 0 235.983539 0 281.133451l0 620.058789c0 45.751911 37.323927 82.473839 82.473839 82.473839l858.450323 0c45.751911 0 82.473839-37.323927 82.473839-82.473839l0-620.058789C1024 235.983539 986.676073 198.659612 941.526161 198.659612zM356.383304 122.205761c0-15.651969 12.641975-28.895944 28.895944-28.895944l254.645503 0c15.651969 0 28.895944 12.641975 28.895944 28.895944L668.820694 198.659612 356.383304 198.659612 356.383304 122.205761zM352.771311 630.292769c15.049971 0 27.089947-12.039976 27.089947-27.089947l0-40.333921L644.138742 562.868901l0 40.333921c0 15.049971 12.039976 27.089947 27.089947 27.089947 15.049971 0 27.089947-12.039976 27.089947-27.089947l0-40.333921 272.103469 0 0 338.925338c0 15.651969-12.641975 28.895944-28.895944 28.895944L82.473839 930.690182c-15.651969 0-28.895944-12.641975-28.895944-28.895944L53.577895 562.868901l272.103469 0 0 40.333921C325.681364 618.252792 338.323339 630.292769 352.771311 630.292769zM671.228689 449.091123c-15.049971 0-27.089947 12.039976-27.089947 27.089947l0 32.507937L379.861258 508.689006l0-32.507937c0-15.049971-12.039976-27.089947-27.089947-27.089947s-27.089947 12.039976-27.089947 27.089947l0 32.507937L54.179894 508.689006 54.179894 281.133451c0-15.651969 12.641975-28.895944 28.895944-28.895944l858.450323 0c15.651969 0 28.895944 12.641975 28.895944 28.895944l0 227.555556L698.318636 508.689006l0-32.507937C698.318636 461.131099 685.676661 449.091123 671.228689 449.091123z" p-id="2772"></path></svg>